<svg width="19" height="19" viewBox="0 0 19 19" xmlns="http://www.w3.org/2000/svg">
<path d="M0 0V19H19V0H0ZM1.72727 1.72727H17.2727V17.2727H1.72727V1.72727ZM9.42055 3.45455C6.03682 3.45455 3.45455 6.02386 3.45455 9.40068C3.45455 12.1065 5.15332 14.4227 7.58532 15.2371C7.90055 15.2924 8.01023 15.099 8.01023 14.9418C8.01023 14.7915 8.00418 13.9555 8.00418 13.4416C8.00418 13.4416 6.28986 13.8113 5.93405 12.7153C5.93405 12.7153 5.65509 12.0089 5.25782 11.824C5.25782 11.824 4.7025 11.4415 5.29841 11.4484C5.29841 11.4484 5.90209 11.4967 6.23805 12.0788C6.77177 13.0245 7.66736 12.749 8.01714 12.5918C8.07155 12.2015 8.23045 11.9268 8.40836 11.7705C7.04468 11.6202 5.66718 11.4216 5.66718 9.07855C5.66718 8.40664 5.85286 8.07155 6.24323 7.63973C6.18105 7.48168 5.96945 6.82445 6.30541 5.98155C6.81927 5.8235 7.99036 6.63877 7.99036 6.63877C8.49031 6.50424 9.00559 6.43515 9.52332 6.43323C10.0419 6.4354 10.5581 6.50478 11.0589 6.63964C11.0589 6.63964 12.23 5.82436 12.743 5.98155C13.0789 6.83136 12.8656 7.48255 12.8043 7.63973C13.1946 8.07155 13.4347 8.4075 13.4347 9.07855C13.4347 11.4345 11.9959 11.6202 10.6331 11.7705C10.8594 11.9622 11.052 12.325 11.052 12.9001C11.052 13.7232 11.045 14.7449 11.045 14.9435C11.045 15.1007 11.1547 15.2915 11.463 15.2371C13.8942 14.4219 15.5455 12.1065 15.5455 9.40068C15.5455 6.02386 12.8051 3.45455 9.42055 3.45455ZM5.66805 11.647C5.61968 11.6332 5.57823 11.6418 5.56441 11.6695C5.55059 11.6971 5.57045 11.736 5.61882 11.7645C5.66027 11.7843 5.70777 11.7783 5.72159 11.7437C5.73541 11.7161 5.71641 11.6746 5.66805 11.647ZM5.88655 11.8517C5.86409 11.8465 5.84164 11.8491 5.82436 11.8664C5.78982 11.894 5.79673 11.9484 5.83818 11.9959C5.87964 12.0305 5.93318 12.0512 5.96773 12.0166C6.00227 11.989 5.99623 11.9355 5.95477 11.8871C5.93512 11.8701 5.91175 11.858 5.88655 11.8517ZM6.14305 12.1686C6.13124 12.1641 6.11855 12.1624 6.10596 12.1636C6.09338 12.1648 6.08124 12.1689 6.0705 12.1755C6.02905 12.2032 6.02905 12.2662 6.0705 12.3206C6.11195 12.375 6.17414 12.4018 6.20868 12.3742C6.24927 12.3465 6.24927 12.2775 6.20868 12.2239C6.19361 12.1987 6.1705 12.1792 6.14305 12.1686ZM6.42373 12.5106C6.41041 12.5086 6.3968 12.5101 6.38423 12.515C6.37167 12.5198 6.36058 12.5279 6.35205 12.5383C6.31836 12.5728 6.33218 12.6393 6.38659 12.6877C6.441 12.743 6.50836 12.7516 6.54291 12.7101C6.57746 12.6825 6.55759 12.6065 6.50923 12.5581C6.48656 12.5331 6.45701 12.5164 6.42373 12.5106ZM6.89355 12.7844C6.83309 12.7706 6.75795 12.7896 6.74414 12.838C6.73032 12.8863 6.77868 12.9425 6.84691 12.9563C6.90736 12.9839 6.98336 12.9545 6.99718 12.907C7.01791 12.8595 6.96868 12.8051 6.89355 12.7844ZM7.81764 12.806C7.75027 12.8198 7.70191 12.8682 7.70882 12.9226C7.71573 12.9701 7.78395 12.9969 7.85218 12.983C7.92732 12.9692 7.97568 12.9226 7.96186 12.8734C7.95495 12.825 7.88759 12.7982 7.8185 12.806H7.81764ZM7.36595 12.8604C7.28995 12.8604 7.23641 12.901 7.23641 12.9494C7.23641 13.0038 7.29082 13.0461 7.37286 13.0392C7.44886 13.0392 7.50241 12.9977 7.50241 12.9494C7.50241 12.8941 7.43505 12.8535 7.36595 12.8604Z"/>
</svg>
