<svg width="57" height="57" viewBox="0 0 57 57" fill="none" xmlns="http://www.w3.org/2000/svg">
<path fill-rule="evenodd" clip-rule="evenodd" d="M57 0H0V57H57V0ZM30.4 30.4C30.4 28.3844 31.2007 26.4513 32.626 25.026C34.0513 23.6007 35.9844 22.8 38 22.8H42.4346C46.2802 22.8 49.4 25.916 49.4 29.7654V30.4H45.6V29.7654C45.6 29.3497 45.5181 28.9381 45.3591 28.5541C45.2 28.17 44.9668 27.8211 44.6729 27.5271C44.3789 27.2332 44.03 27 43.6459 26.841C43.2619 26.6819 42.8503 26.6 42.4346 26.6H38C36.9922 26.6 36.0256 27.0004 35.313 27.713C34.6004 28.4256 34.2 29.3922 34.2 30.4C34.2 31.4078 34.6004 32.3744 35.313 33.087C36.0256 33.7996 36.9922 34.2 38 34.2H41.8C43.8156 34.2 45.7487 35.0007 47.174 36.426C48.5993 37.8513 49.4 39.7844 49.4 41.8C49.4 43.8156 48.5993 45.7487 47.174 47.174C45.7487 48.5993 43.8156 49.4 41.8 49.4H38C35.9844 49.4 34.0513 48.5993 32.626 47.174C31.2007 45.7487 30.4 43.8156 30.4 41.8H34.2C34.2 42.8078 34.6004 43.7744 35.313 44.487C36.0256 45.1996 36.9922 45.6 38 45.6H41.8C42.8078 45.6 43.7744 45.1996 44.487 44.487C45.1996 43.7744 45.6 42.8078 45.6 41.8C45.6 40.7922 45.1996 39.8256 44.487 39.113C43.7744 38.4004 42.8078 38 41.8 38H38C35.9844 38 34.0513 37.1993 32.626 35.774C31.2007 34.3487 30.4 32.4156 30.4 30.4ZM22.8 22.8V41.8C22.8 42.8078 22.3996 43.7744 21.687 44.487C20.9744 45.1996 20.0078 45.6 19 45.6C17.9922 45.6 17.0256 45.1996 16.313 44.487C15.6004 43.7744 15.2 42.8078 15.2 41.8H11.4C11.4 43.8156 12.2007 45.7487 13.626 47.174C15.0513 48.5993 16.9844 49.4 19 49.4C21.0156 49.4 22.9487 48.5993 24.374 47.174C25.7993 45.7487 26.6 43.8156 26.6 41.8V22.8H22.8Z" fill="#035E7B"/>
</svg>
