<svg width="19" height="19" viewBox="0 0 19 19" xmlns="http://www.w3.org/2000/svg">
<path d="M0 0V19H19V0H0ZM4.65954 3.73529C5.4121 3.74376 6.15342 4.26294 6.18567 5.16168C6.20176 5.96087 5.5053 6.5696 4.63983 6.58808H4.61896C3.87389 6.57948 3.14627 6.04727 3.11255 5.16168C3.12317 4.37139 3.78748 3.75404 4.65954 3.73529ZM12.7332 7.51118C13.5605 7.5163 14.3414 7.76175 14.9829 8.41573C15.6496 9.15927 15.8636 10.1845 15.8875 11.2268V15.9675H13.1553V11.5491C13.1492 10.721 12.8655 9.71442 11.7695 9.68091C11.1271 9.68775 10.6741 10.061 10.3639 10.6852C10.2793 10.8861 10.2671 11.117 10.2631 11.3474V15.9675H7.53204C7.54249 13.6578 7.55685 11.3482 7.55176 9.03846C7.55176 8.38236 7.54544 7.94058 7.53204 7.71295H10.2631V8.87726C10.4949 8.54756 10.752 8.23489 11.0968 7.98315C11.5646 7.6493 12.1266 7.52132 12.7332 7.51118ZM3.27375 7.71295H6.00476V15.9675H3.27375V7.71295Z"/>
</svg>
